<?xml version="1.0" encoding="utf-8"?>
<!-- Generator: Adobe Illustrator 25.0.1, SVG Export Plug-In . SVG Version: 6.00 Build 0)  -->
<svg version="1.1" xmlns="http://www.w3.org/2000/svg" xmlns:xlink="http://www.w3.org/1999/xlink" x="0px" y="0px"
	 viewBox="0 0 960 740" style="enable-background:new 0 0 960 740;" xml:space="preserve">
<style type="text/css">
	.st0{fill:#0079C2;}
	.st1{opacity:0.3;fill:#9EB6C2;}
	.st2{opacity:0.6;fill:#00A0DD;}
	.st3{fill:#BCC7FD;}
	.st4{opacity:0.3;}
	.st5{fill:#DA97B8;}
	.st6{fill:#2E3054;}
	.st7{opacity:0.3;fill:#A8BCFF;}
	.st8{fill:#AAD26C;}
	.st9{fill:#3F8D60;}
	.st10{fill:#70BF54;}
	.st11{fill:#FFFFFF;}
	.st12{fill:#2F4866;}
	.st13{fill:#455E77;}
	.st14{opacity:0.2;fill:#FFFFFF;}
	.st15{fill:#5C75C3;}
	.st16{fill:#7AB6F6;}
	.st17{opacity:0.6;fill:#CBCFFF;}
	.st18{fill:#B0BCD8;}
	.st19{fill:#BFD4F8;}
	.st20{opacity:0.6;}
	.st21{fill:#CBCFFF;}
	.st22{fill:#DA1F3D;}
	.st23{opacity:0.4;fill:#F9B0A1;}
	.st24{fill:#00A0DD;}
	.st25{fill:#3D4166;}
	.st26{fill:#ECB49F;}
	.st27{fill:#0B1238;}
	.st28{fill:#FA9A95;}
	.st29{fill:#4A4754;}
	.st30{opacity:0.3;fill:#00A0DD;}
	.st31{fill:#FAB8BD;}
</style>
<g id="Layer_1">
</g>
<g id="Layer_2">
	<path class="st0" d="M647.72,179.09c0,75.61-61.3,136.91-136.92,136.91s-136.92-61.3-136.92-136.91s61.3-136.91,136.92-136.91
		S647.72,103.48,647.72,179.09z"/>
	<path class="st1" d="M872.78,723.33c0,5.44-32.1,9.86-71.68,9.86c-39.59,0-71.71-4.42-71.71-9.86c0-5.44,32.12-9.86,71.71-9.86
		C840.68,713.47,872.78,717.89,872.78,723.33z"/>
	<path class="st1" d="M119.4,630.37c0,4.45-26.72,8.06-59.69,8.06c-32.97,0-59.71-3.61-59.71-8.06c0-4.45,26.74-8.06,59.71-8.06
		C92.67,622.3,119.4,625.92,119.4,630.37z"/>
	<path class="st2" d="M483.3,231.63c0,90.64-73.48,164.11-164.12,164.11c-90.64,0-164.12-73.47-164.12-164.11
		c0-90.63,73.47-164.11,164.12-164.11C409.82,67.53,483.3,141,483.3,231.63z"/>
	<path class="st1" d="M951.23,315.76c0,90.64-73.48,164.11-164.12,164.11C696.47,479.87,623,406.4,623,315.76
		c0-90.63,73.47-164.1,164.12-164.1C877.75,151.66,951.23,225.13,951.23,315.76z"/>
	<g>
		<g>
			<path class="st3" d="M515.41,106.7c-0.11,0-5.93,3.14-5.93,3.14l-0.87-3.45l7.31-3.92h3.86v33.47h-4.38V106.7z"/>
			<path class="st3" d="M554.25,118.86c0,11.38-4.22,17.66-11.64,17.66c-6.54,0-10.97-6.13-11.07-17.2c0-11.22,4.84-17.4,11.64-17.4
				C550.23,101.91,554.25,108.2,554.25,118.86z M536.07,119.37c0,8.71,2.67,13.65,6.8,13.65c4.64,0,6.85-5.41,6.85-13.95
				c0-8.24-2.11-13.64-6.8-13.64C538.96,105.42,536.07,110.26,536.07,119.37z"/>
			<path class="st3" d="M568.28,106.7c-0.11,0-5.93,3.14-5.93,3.14l-0.88-3.45l7.31-3.92h3.86v33.47h-4.38V106.7z"/>
			<path class="st3" d="M607.11,118.86c0,11.38-4.22,17.66-11.64,17.66c-6.54,0-10.97-6.13-11.06-17.2c0-11.22,4.84-17.4,11.63-17.4
				C603.09,101.91,607.11,108.2,607.11,118.86z M588.93,119.37c0,8.71,2.68,13.65,6.8,13.65c4.63,0,6.85-5.41,6.85-13.95
				c0-8.24-2.11-13.64-6.79-13.64C591.82,105.42,588.93,110.26,588.93,119.37z"/>
			<path class="st3" d="M621.13,106.7c-0.1,0-5.92,3.14-5.92,3.14l-0.88-3.45l7.31-3.92h3.86v33.47h-4.38V106.7z"/>
		</g>
		<g>
			<path class="st3" d="M531.32,162.18c0,11.38-4.22,17.66-11.64,17.66c-6.54,0-10.97-6.13-11.07-17.2c0-11.22,4.84-17.4,11.64-17.4
				C527.31,145.24,531.32,151.52,531.32,162.18z M513.15,162.69c0,8.71,2.67,13.65,6.79,13.65c4.64,0,6.85-5.41,6.85-13.95
				c0-8.24-2.11-13.64-6.8-13.64C516.03,148.74,513.15,153.58,513.15,162.69z"/>
			<path class="st3" d="M545.35,150.03c-0.11,0-5.92,3.14-5.92,3.14l-0.88-3.45l7.31-3.91h3.87v33.47h-4.38V150.03z"/>
			<path class="st3" d="M584.18,162.18c0,11.38-4.22,17.66-11.64,17.66c-6.54,0-10.97-6.13-11.07-17.2c0-11.22,4.84-17.4,11.63-17.4
				C580.16,145.24,584.18,151.52,584.18,162.18z M566.01,162.69c0,8.71,2.67,13.65,6.79,13.65c4.64,0,6.85-5.41,6.85-13.95
				c0-8.24-2.12-13.64-6.79-13.64C568.89,148.74,566.01,153.58,566.01,162.69z"/>
			<path class="st3" d="M598.2,150.03c-0.1,0-5.92,3.14-5.92,3.14l-0.88-3.45l7.31-3.91h3.86v33.47h-4.38V150.03z"/>
		</g>
		<g>
			<path class="st3" d="M515.41,190.36c-0.11,0-5.93,3.14-5.93,3.14l-0.87-3.45l7.31-3.91h3.86v33.47h-4.38V190.36z"/>
			<path class="st3" d="M554.25,202.52c0,11.38-4.22,17.66-11.64,17.66c-6.54,0-10.97-6.13-11.07-17.2c0-11.22,4.84-17.4,11.64-17.4
				C550.23,185.58,554.25,191.86,554.25,202.52z M536.07,203.03c0,8.7,2.67,13.65,6.8,13.65c4.64,0,6.85-5.41,6.85-13.95
				c0-8.24-2.11-13.65-6.8-13.65C538.96,189.08,536.07,193.92,536.07,203.03z"/>
			<path class="st3" d="M568.28,190.36c-0.11,0-5.93,3.14-5.93,3.14l-0.88-3.45l7.31-3.91h3.86v33.47h-4.38V190.36z"/>
			<path class="st3" d="M607.11,202.52c0,11.38-4.22,17.66-11.64,17.66c-6.54,0-10.97-6.13-11.06-17.2c0-11.22,4.84-17.4,11.63-17.4
				C603.09,185.58,607.11,191.86,607.11,202.52z M588.93,203.03c0,8.7,2.68,13.65,6.8,13.65c4.63,0,6.85-5.41,6.85-13.95
				c0-8.24-2.11-13.65-6.79-13.65C591.82,189.08,588.93,193.92,588.93,203.03z"/>
			<path class="st3" d="M621.13,190.36c-0.1,0-5.92,3.14-5.92,3.14l-0.88-3.45l7.31-3.91h3.86v33.47h-4.38V190.36z"/>
		</g>
	</g>
	<g>
		<g>
			<path class="st3" d="M392.88,72.44c-0.11,0-5.93,3.14-5.93,3.14l-0.87-3.45l7.31-3.92h3.86v33.47h-4.38V72.44z"/>
			<path class="st3" d="M431.72,84.59c0,11.38-4.22,17.66-11.64,17.66c-6.54,0-10.97-6.13-11.07-17.2c0-11.22,4.84-17.4,11.63-17.4
				C427.71,67.65,431.72,73.93,431.72,84.59z M413.55,85.1c0,8.71,2.67,13.65,6.8,13.65c4.64,0,6.85-5.41,6.85-13.95
				c0-8.24-2.11-13.64-6.8-13.64C416.43,71.15,413.55,75.99,413.55,85.1z"/>
			<path class="st3" d="M445.74,72.44c-0.1,0-5.92,3.14-5.92,3.14l-0.88-3.45l7.31-3.92h3.86v33.47h-4.38V72.44z"/>
			<path class="st3" d="M484.58,84.59c0,11.38-4.22,17.66-11.64,17.66c-6.54,0-10.97-6.13-11.06-17.2c0-11.22,4.84-17.4,11.63-17.4
				C480.57,67.65,484.58,73.93,484.58,84.59z M466.4,85.1c0,8.71,2.69,13.65,6.8,13.65c4.63,0,6.85-5.41,6.85-13.95
				c0-8.24-2.11-13.64-6.79-13.64C469.29,71.15,466.4,75.99,466.4,85.1z"/>
			<path class="st3" d="M498.6,72.44c-0.1,0-5.92,3.14-5.92,3.14l-0.88-3.45l7.31-3.92h3.86v33.47h-4.38V72.44z"/>
		</g>
		<g>
			<path class="st3" d="M408.79,127.92c0,11.38-4.22,17.66-11.64,17.66c-6.54,0-10.97-6.13-11.07-17.2c0-11.22,4.84-17.4,11.64-17.4
				C404.78,110.98,408.79,117.26,408.79,127.92z M390.62,128.43c0,8.71,2.67,13.65,6.79,13.65c4.64,0,6.85-5.41,6.85-13.95
				c0-8.24-2.11-13.65-6.8-13.65C393.5,114.48,390.62,119.32,390.62,128.43z"/>
			<path class="st3" d="M422.82,115.76c-0.11,0-5.92,3.14-5.92,3.14l-0.88-3.45l7.31-3.92h3.87v33.47h-4.38V115.76z"/>
			<path class="st3" d="M461.65,127.92c0,11.38-4.22,17.66-11.63,17.66c-6.54,0-10.97-6.13-11.07-17.2c0-11.22,4.84-17.4,11.63-17.4
				C457.64,110.98,461.65,117.26,461.65,127.92z M443.48,128.43c0,8.71,2.67,13.65,6.79,13.65c4.64,0,6.85-5.41,6.85-13.95
				c0-8.24-2.12-13.65-6.79-13.65C446.36,114.48,443.48,119.32,443.48,128.43z"/>
			<path class="st3" d="M475.67,115.76c-0.1,0-5.92,3.14-5.92,3.14l-0.88-3.45l7.31-3.92h3.86v33.47h-4.38V115.76z"/>
		</g>
		<g>
			<path class="st3" d="M392.88,156.1c-0.11,0-5.93,3.14-5.93,3.14l-0.87-3.45l7.31-3.92h3.86v33.47h-4.38V156.1z"/>
			<path class="st3" d="M431.72,168.26c0,11.38-4.22,17.66-11.64,17.66c-6.54,0-10.97-6.13-11.07-17.2c0-11.22,4.84-17.4,11.63-17.4
				C427.71,151.31,431.72,157.6,431.72,168.26z M413.55,168.77c0,8.71,2.67,13.65,6.8,13.65c4.64,0,6.85-5.41,6.85-13.95
				c0-8.24-2.11-13.65-6.8-13.65C416.43,154.82,413.55,159.66,413.55,168.77z"/>
			<path class="st3" d="M445.74,156.1c-0.1,0-5.92,3.14-5.92,3.14l-0.88-3.45l7.31-3.92h3.86v33.47h-4.38V156.1z"/>
			<path class="st3" d="M484.58,168.26c0,11.38-4.22,17.66-11.64,17.66c-6.54,0-10.97-6.13-11.06-17.2c0-11.22,4.84-17.4,11.63-17.4
				C480.57,151.31,484.58,157.6,484.58,168.26z M466.4,168.77c0,8.71,2.69,13.65,6.8,13.65c4.63,0,6.85-5.41,6.85-13.95
				c0-8.24-2.11-13.65-6.79-13.65C469.29,154.82,466.4,159.66,466.4,168.77z"/>
			<path class="st3" d="M498.6,156.1c-0.1,0-5.92,3.14-5.92,3.14l-0.88-3.45l7.31-3.92h3.86v33.47h-4.38V156.1z"/>
		</g>
	</g>
	<g class="st4">
		<g>
			<g>
				<path class="st5" d="M924.4,287.44c0,0.86-0.57,1.55-1.26,1.55c-0.7,0-1.27-0.7-1.27-1.55v-5.05c0-0.85,0.56-1.55,1.27-1.55
					c0.7,0,1.26,0.7,1.26,1.55V287.44z"/>
				<path class="st5" d="M924.4,267.63c0,0.86-0.57,1.56-1.26,1.56c-0.7,0-1.27-0.7-1.27-1.56v-5.05c0-0.85,0.56-1.55,1.27-1.55
					c0.7,0,1.26,0.7,1.26,1.55V267.63z"/>
			</g>
			<g>
				<path class="st5" d="M934.53,280.13c0.74,0.43,1.06,1.27,0.71,1.87c-0.34,0.6-1.23,0.74-1.97,0.31l-4.37-2.52
					c-0.75-0.43-1.07-1.27-0.72-1.87c0.35-0.6,1.24-0.74,1.98-0.31L934.53,280.13z"/>
				<path class="st5" d="M917.38,270.22c0.75,0.43,1.06,1.27,0.72,1.87c-0.35,0.61-1.24,0.75-1.98,0.32l-4.37-2.52
					c-0.74-0.43-1.06-1.27-0.71-1.87c0.34-0.6,1.23-0.75,1.97-0.32L917.38,270.22z"/>
			</g>
			<g>
				<path class="st5" d="M933.28,267.7c0.74-0.43,1.63-0.29,1.97,0.32c0.35,0.6,0.03,1.44-0.71,1.87l-4.37,2.52
					c-0.74,0.43-1.63,0.29-1.98-0.32c-0.35-0.6-0.03-1.44,0.72-1.87L933.28,267.7z"/>
				<path class="st5" d="M916.12,277.6c0.74-0.43,1.63-0.29,1.98,0.31c0.34,0.6,0.03,1.44-0.72,1.87l-4.38,2.52
					c-0.74,0.43-1.62,0.29-1.97-0.32c-0.35-0.6-0.03-1.44,0.71-1.87L916.12,277.6z"/>
			</g>
		</g>
	</g>
	<g>
		<g>
			<path class="st6" d="M417.55,113.35c0,0.85-0.57,1.55-1.26,1.55c-0.7,0-1.26-0.7-1.26-1.55v-5.04c0-0.85,0.56-1.55,1.26-1.55
				c0.7,0,1.26,0.7,1.26,1.55V113.35z"/>
			<path class="st6" d="M417.55,93.6c0,0.86-0.57,1.55-1.26,1.55c-0.7,0-1.26-0.69-1.26-1.55v-5.04c0-0.85,0.56-1.55,1.26-1.55
				c0.7,0,1.26,0.7,1.26,1.55V93.6z"/>
		</g>
		<g>
			<path class="st6" d="M427.65,106.06c0.74,0.43,1.06,1.26,0.71,1.86c-0.34,0.6-1.22,0.75-1.97,0.32l-4.36-2.52
				c-0.74-0.43-1.05-1.26-0.71-1.86c0.34-0.6,1.23-0.74,1.97-0.31L427.65,106.06z"/>
			<path class="st6" d="M410.55,96.18c0.74,0.43,1.06,1.27,0.72,1.86c-0.35,0.6-1.23,0.74-1.98,0.32l-4.36-2.52
				c-0.74-0.43-1.06-1.26-0.71-1.86c0.34-0.6,1.23-0.74,1.97-0.32L410.55,96.18z"/>
		</g>
		<g>
			<path class="st6" d="M426.39,93.67c0.74-0.43,1.62-0.29,1.97,0.32c0.35,0.6,0.03,1.44-0.71,1.86l-4.36,2.52
				c-0.74,0.43-1.63,0.28-1.97-0.32c-0.34-0.6-0.03-1.44,0.71-1.86L426.39,93.67z"/>
			<path class="st6" d="M409.29,103.54c0.75-0.43,1.63-0.29,1.98,0.31c0.34,0.6,0.02,1.44-0.72,1.86l-4.36,2.52
				c-0.74,0.43-1.63,0.29-1.97-0.31c-0.35-0.6-0.03-1.44,0.71-1.86L409.29,103.54z"/>
		</g>
	</g>
	<path class="st7" d="M878.04,696.28c0,5.26-160.76,9.53-359.13,9.53c-198.36,0-359.14-4.28-359.14-9.53
		c0-5.27,160.79-9.55,359.14-9.55C717.27,686.73,878.04,691.01,878.04,696.28z"/>
	<path class="st6" d="M877.55,688.26c0,4.13-3.93,7.49-8.77,7.49H179.13c-4.84,0-8.77-3.35-8.77-7.49v-29.4h707.19V688.26z"/>
	<path class="st8" d="M960,418.41c-39.81,17.92-154.8,11.13-138.06,63.31c-53.12-4.25-69.16,11.23-64.84,47.65
		c-0.46-3.92-19.5-0.88-22.2,0.38c-4.49,2.06-9.92,8.56-12.44,12.01c-8.02,10.98-8.8,23.31-10.53,35.42
		c-2.07,14.45-5.93,28.82-10.79,42.83c33.16-30.64,155.44-32.39,132.9-68.69c18.99,1.38,53.94,5.36,68.81-6.14
		c19.06-14.73-4.15-29.27-21.69-36.16c73.48-8.2,65.15-31.32,54.46-57.45l12.66-11.52C954,433.54,958.24,425.73,960,418.41z"/>
	<path class="st9" d="M799.87,504.06c3.21-30.66,19-66.94,35.95-94.5c11.45-18.64,44.53-65.71,71.8-60.95
		c30.57,5.34,13.42,64.39,3.09,82.53c-15.14,26.64-37.36,45.1-61.61,63.73c-22.99,17.67-43.29,39.28-65.81,55.98L799.87,504.06z"/>
	<g>
		<path class="st9" d="M130.24,522.2c-8.56-8.13-17.91-15.92-19.49-28.73c-2.2-17.74,8.86-17.36,18.69-30.14
			c-22.92-14.72-44.7-20.12-57.07-48.96c-12.2-28.4,5.85-44.45,33.19-35.94c3.75,1.16-18.59-22.74-22.4-26.82
			c-8.43-9.03-14.14-21.92-16.86-33.86c-4.91-21.62,2.35-48.07,29.34-45.65c23.39,2.1,30.17,28.93,36.5,48.03
			c2.85,8.57,5.93,19.42,6.77,28.68c13.46-7.99,20.69-25.31,35.77-9.89c10.52,10.76,10.43,34.17,2.84,46.29
			c18.34,1.59,28.97-1.47,42.09,12.49c8.48,9.02,16.12,23.7,20.78,36.32c10.61,28.73,20.14,130.82,19.48,163.58
			C259.88,597.61,148.15,539.22,130.24,522.2z"/>
		<path class="st9" d="M259.49,578.01c-0.07-0.06-0.14-0.12-0.21-0.19c-7.03-6.51-13.57-13.72-19.91-21.11
			c1.04-1.56,1.74-3.39,2.47-5.1c2.34-5.46,5.39-10.66,8.02-15.99c1.97-4,3.77-8.08,5.46-12.19c-0.27-2.69-0.55-5.38-0.84-8.07
			c-1.39,3.74-2.91,7.45-4.54,11.13c-2.48,5.58-5.26,11.02-8.06,16.45c-1.33,2.6-2.91,7.76-4.97,10.88
			c-5.28-6.23-10.47-12.54-15.7-18.64c-5.3-6.17-10.41-12.49-15.4-18.9c2.95-3.24,4.79-7.03,6.74-10.98
			c2.13-4.29,5.13-8.04,6.32-12.79c1.77-7.03,5.49-13.78,7.92-20.61c2.01-5.65,3.41-11.43,4.59-17.3
			c1.97-9.91,3.83-19.83,5.21-29.83c-0.72-1.59-1.48-3.18-2.26-4.76c-1.23,9.44-3.05,18.8-4.94,28.12
			c-2.71,13.29-6.64,25.69-12.02,38.15c-3.82,8.85-7.14,19.74-13.8,27.15c-6.06-7.89-11.91-15.93-17.57-24.11
			c4.59-8.14,9.65-15.91,14.03-24.23c5.69-10.81,8.6-23.83,11.48-35.59c2.74-11.23,4.76-22.6,5.8-34.11
			c-0.89-0.83-1.76-1.58-2.63-2.26c-0.86,11.07-3.18,22.17-5.65,32.87c-2.95,12.8-6.67,25.59-12,37.62
			c-3.53,7.98-8.72,15.1-13.17,22.58c-5.81-8.49-11.44-17.1-16.9-25.81c4.78-5.22,7.02-13.54,9.19-19.94
			c4.46-13.17,7.99-26.9,11.04-40.47c1.06-4.68,1.88-9.39,2.62-14.12c-1-0.04-2.03-0.08-3.08-0.12c-0.75,4.55-1.57,9.1-2.56,13.62
			c-2.47,11.27-5.61,22.39-9.19,33.35c-2.45,7.52-4.38,18.2-9.79,24.82c-0.99-1.6-2-3.18-2.99-4.78
			c-4.52-7.38-9.03-14.84-13.38-22.38c4.63-7.26,6.99-15.74,8.77-24.09c2.47-11.6,6.81-22.77,9.27-34.4
			c2.39-11.25,4.35-23.51,4.82-35.68c-1.24-0.98-2.43-1.74-3.57-2.28c-0.36,12.43-1.54,24.74-4.1,37.37
			c-2,9.88-5.2,19.49-8.05,29.14c-2.7,9.19-4.62,18.19-8.98,26.7c-3.01-5.31-5.94-10.66-8.67-16.09
			c-4.14-8.23-7.52-16.83-11.41-25.18c-1.57-3.36-3.44-6.62-5.32-9.89c0.26-0.09,6.48-25.64,9.13-38.03c0.86-4.04,2-8.3,3.08-12.63
			c-0.55-1.79-1.1-3.54-1.65-5.19c-0.28-0.85-0.57-1.73-0.86-2.62c-0.99,5.81-1.75,11.7-2.89,17.16c-2.72,12.97-6.6,26.2-7.9,39.42
			c-2.43-4.27-4.76-8.58-6.3-13.15c-1.99-5.9-3.81-11.82-5.69-17.71c6.32-11.93,8.28-27.07,11-40.16c0.74-3.55,1.48-7.1,2.22-10.64
			c-0.74-1.43-1.52-2.8-2.35-4.14c-1,5.62-2.37,11.21-3.5,16.87c-2.31,11.49-4.62,23.47-8.49,34.58
			c-2.53-7.78-5.26-15.48-8.73-22.97c-0.08-0.19-0.2-0.65-0.18-0.7c2.28-9.35,4.23-18.79,6.36-28.17c0.85-3.77,2.03-7.74,3.01-11.75
			c-1.11-0.68-2.27-1.29-3.49-1.82c-0.91,4.38-1.56,8.86-2.49,12.96c-1.86,8.17-3.81,16.35-5.36,24.58c-2.54-6-4.8-12.12-7.31-18.14
			c-2.6-6.24-5.42-13.08-7.19-19.94c-0.64,0.25-1.24,0.55-1.85,0.85c0.95,4.01,2.36,7.97,3.62,11.7c2.98,8.84,6.66,17.6,10.26,26.2
			c0.83,1.99,1.62,3.97,2.42,5.95c-2.82-1.82-25.99-13.95-31.44-15.28c-0.06,0.34-0.08,0.67-0.09,1.01
			c6.63,3.9,32.66,18.26,33.07,18.07c3.64,9.25,6.96,18.52,10.01,28c-4.93-2.2-9.8-4.09-15.04-5.57
			c-6.68-1.89-12.84-5.14-19.46-7.19c0.21,0.41,0.42,0.83,0.64,1.23c5.25,2.15,10.27,4.77,15.61,6.71c3.5,1.27,7.12,2.2,10.62,3.47
			c2.95,1.07,4.97,2.59,8.12,2.94c0.81,2.51,1.62,5.02,2.38,7.56c2.19,7.3,6.08,13.27,9.73,19.92c4.91,8.94,8.54,18.65,12.72,27.95
			c1.27,2.83,2.65,5.6,4.06,8.35c-4.39-0.26-8.28-1.89-12.37-3.7c-6.64-2.93-13.42-5.53-19.96-8.68c-10.4-5.01-22.47-11.6-31.56-20
			c-0.35,0.39-0.68,0.8-1,1.23c10.1,10.22,24.36,17.8,36.55,23.5c3.04,1.42,24.23,12.98,29.59,10.06c2.22,4.18,4.56,8.28,6.94,12.36
			c0.05,0.33,0.22,0.61,0.47,0.81c2.29,3.9,4.61,7.79,6.9,11.7c-16-3.03-32.23-6.15-47.27-12.56c-12.43-5.3-23.84-11.95-34.74-19.71
			c0.43,1.21,0.89,2.44,1.43,3.7c0.22,0.53,0.48,1,0.72,1.51c23.17,18.01,53.47,25.59,81.64,31.13c0.2,0.04,0.37,0.02,0.55,0
			c0.99,1.72,1.99,3.43,2.95,5.16c1.48,2.69,3.13,5.29,4.81,7.85c-0.34,0.91,0.48,2.02,1.41,2.16c2.37,3.54,4.79,7.04,7.07,10.64
			c3.95,6.25,7.64,12.56,11.75,18.67c-1.87-0.55-12.68,0.47-14.09,0.43c-9.51-0.29-18.92-0.46-28.38-1.72
			c-8.98-1.2-18.03-3.16-26.73-5.7c-0.95-0.27-1.9-0.58-2.85-0.88c-0.21,0.71-0.38,1.47-0.5,2.27c0.83,0.34,1.67,0.66,2.54,0.98
			c7.81,2.83,16.13,4.42,24.27,5.93c7.93,1.48,15.92,1.94,23.97,2.2c3.99,0.13,8.15,0.54,12.12,0.14c3.76-0.38,6.99-1.45,10.8-0.41
			c0.34,0.1,0.67,0.02,0.98-0.13c0.13,0.19,0.25,0.38,0.39,0.57c4.81,6.71,9.8,13.35,14.89,19.93c-6.87-0.27-13.83,2.69-20.52,3.93
			c-10.4,1.94-20.74,1.7-31.19,0.24c-8.96-1.25-17.96-3.03-26.81-4.9c1.44,1.48,2.92,2.94,4.43,4.37c6.25,1.33,12.61,2.33,18.77,3.5
			c8.74,1.66,17.62,2.23,26.48,1.58c3.98-0.3,7.94-0.94,11.86-1.71c5.36-1.04,11.61-3.76,17.1-3.29c0.9,0.08,1.57-0.4,1.93-1.03
			c5.47,6.99,11.09,13.86,16.81,20.56c-3.25,1.69-6.38,3.68-9.71,5.26c-6.28,3-12.82,4.57-19.53,6.4c-3.5,0.96-7.71,2.12-12.1,2.99
			c1.32,0.76,2.65,1.51,3.98,2.28c1.02-0.17,2.02-0.35,3-0.5c8.53-1.31,17.96-4.18,25.74-7.82c3.22-1.51,8.23-2.96,10.94-5.86
			c4.3,5.05,8.57,10.15,12.9,15.22c-0.85,1.45,0.64,3.47,2.29,2.68c5.77,6.72,11.68,13.31,17.94,19.5c1.54,1.53,3.12,3.02,4.7,4.5
			C259.63,581.41,259.56,579.74,259.49,578.01z"/>
	</g>
	<path class="st10" d="M728.93,586.34c-13.52-27.98-39.41-42.24-23.18-77.79c6.49-14.21,21.21-22.82,29.22-35.29
		c10.04-15.57,4.04-18.76,3.89-35.44c-0.35-35.96,28.81-42.67,48.98-69.55c14.09-18.75,13.97-41.15,32.01-60.9
		c18.31-20.07,49.52-37.59,58.78-61.77c-2.08,43.17,22.34,110.17-23.92,145.48c22.75,13.9,23.55,40.16,9.12,60.4
		c-6.9,9.66-25.84,16.85-30.53,27.1c-6.4,14,4.41,14.77,4.03,27.16c-1.23,39.33-151.23,91.77-119.54,131.94L728.93,586.34z"/>
	<g class="st4">
		<path class="st11" d="M848.89,330.06c13.47-3.52,24.24-8.15,34.28-13.67c-0.02-1.2-0.07-2.38-0.12-3.56
			c-10.62,6.04-20.5,10.31-32.95,13.72c1.84-5.35,3.64-10.65,5.38-15.91c1.56-4.66,3.11-9.31,4.7-13.96
			c1.49-4.34,3.27-8.74,4.98-12.99c1.46-3.61,2.96-7.34,4.26-10.96c0.81-2.28,1.85-4.91,2.97-7.69c2.25-5.66,4.68-11.79,6.19-17.39
			c0.03-0.69,0.03-1.37,0.05-2.06c-1.87,4.89-4.65,9.51-8.04,13.93c-0.64,1.66-1.29,3.28-1.89,4.82c-1.12,2.81-2.17,5.45-3.02,7.79
			c-1.27,3.56-2.76,7.27-4.2,10.85c-1.73,4.28-3.52,8.71-5.02,13.13c-1.59,4.64-3.15,9.29-4.7,13.97
			c-3.89,11.63-7.92,23.57-12.55,35.4c-12.07-6.9-15.23-25.59-15.78-41.84c-1.24,1.23-2.43,2.47-3.57,3.73
			c-0.05,0.04-0.07,0.1-0.13,0.15c0.99,16.49,5,34.57,18.21,41.17c-0.53,1.29-1.03,2.6-1.57,3.91
			c-4.79,11.41-10.17,22.73-15.85,33.91c-10.85-12.13-18.19-26.59-21-40.84c-0.8,2.09-1.64,4.16-2.54,6.22
			c3.72,13.5,11.22,26.86,21.74,38.13c-4.93,9.61-10,19.11-15.02,28.49c-0.11,0.05-0.21,0.09-0.32,0.14l0.15,0.18
			c-0.18,0.28-0.32,0.58-0.47,0.87c-1.4,2.61-2.82,5.25-4.24,7.89c-2.45-3.66-5.54-7.05-8.58-10.32c-2.99-3.22-6.08-6.55-8.43-10.09
			c-5.07-7.6-6.9-15.26-8.49-23.29c-1.12,1.04-2.24,2.03-3.35,3.01c1.51,7.28,3.56,14.69,8.37,21.92c2.48,3.71,5.65,7.12,8.72,10.43
			c3.37,3.63,6.88,7.39,9.31,11.43l1.05-0.47c-6.37,11.96-12.75,24.18-18.63,36.43c-0.3,0.64-0.61,1.29-0.91,1.92
			c-2.33-4.59-7.15-9.33-11.57-13.66c-2.85-2.78-5.53-5.41-7.05-7.52c-6.7-9.37-13.35-19.78-16.42-30.26
			c-0.81,1.84-1.54,3.79-2.12,5.84c3.55,9.13,9.32,18.01,15.13,26.13c1.66,2.32,4.42,5.04,7.35,7.9
			c5.41,5.26,12.05,11.77,12.2,16.77c-9.36,19.5-19.32,40-29.52,60c-7.69,15.05-12.61,30.74-17.38,45.92
			c-0.37,1.17-0.73,2.38-1.12,3.56c0.54,1.01,1.06,2.05,1.58,3.1l-2.6,12.01c2.09-6.07,4.02-12.18,5.91-18.17
			c4.73-15.07,9.6-30.64,17.19-45.48c10.26-20.1,20.26-40.7,29.65-60.27c0.17-0.11,0.15-0.21,0.17-0.34
			c1.05-2.19,2.11-4.39,3.15-6.57c2.07-4.33,4.23-8.66,6.41-12.99c7.47-1.91,16.38-2.61,25.04-3.28c6.7-0.52,13.64-1.06,19.85-2.15
			c15.38-2.73,26.56-7.85,37.95-13.45c0.39-1.32,0.71-2.64,0.98-3.99c-12.06,5.97-23.5,11.58-39.45,14.41
			c-5.97,1.06-12.78,1.59-19.36,2.08c-7.86,0.62-15.93,1.26-23.15,2.79c5.22-10.22,10.63-20.35,15.96-30.27
			c0.02-0.04,0.04-0.1,0.09-0.16c3.62-1.53,8.8-2.13,13.86-2.71c3.97-0.46,8.07-0.93,11.59-1.87c9.11-2.42,24.06-6.41,34.64-13.84
			c-0.63-0.87-1.29-1.7-1.98-2.53c-8.46,6.09-20.91,10.07-33.6,13.45c-3.16,0.85-7.09,1.28-10.89,1.73
			c-3.94,0.46-7.97,0.92-11.52,1.85c7.99-14.91,16.07-30.13,23.37-45.61c1.37,0.05,2.82,0.05,4.32,0
			c12.02-0.47,27.68-4.25,40.63-10.05c0.51-1.36,1-2.74,1.44-4.14c-13.9,6.83-32.4,11.33-45,11.12c2.25-4.84,4.43-9.7,6.47-14.59
			C843.26,345.62,846.16,337.82,848.89,330.06z"/>
		<path class="st11" d="M721.75,610.76c0.88-2.17,1.7-4.4,2.53-6.61c-1.87,2.07-3.54,4.1-4.98,6.15L721.75,610.76z"/>
	</g>
	<path class="st7" d="M304.01,729.41c0,5.84-45.84,10.59-102.41,10.59c-56.56,0-102.41-4.75-102.41-10.59
		c0-5.86,45.85-10.6,102.41-10.6C258.16,718.81,304.01,723.56,304.01,729.41z"/>
	<path class="st7" d="M614.71,728.27c0,3.82-30,6.93-67.02,6.93c-37.02,0-67.02-3.11-67.02-6.93c0-3.83,30.01-6.94,67.02-6.94
		C584.71,721.34,614.71,724.44,614.71,728.27z"/>
	<path class="st7" d="M199.67,597.52c0,3.35-26.25,6.07-58.64,6.07c-32.39,0-58.64-2.72-58.64-6.07c0-3.35,26.25-6.07,58.64-6.07
		C173.41,591.45,199.67,594.17,199.67,597.52z"/>
	<path class="st7" d="M934.53,604.71c0,2.51-19.69,4.55-43.99,4.55c-24.29,0-43.98-2.04-43.98-4.55c0-2.51,19.69-4.55,43.98-4.55
		C914.83,600.16,934.53,602.2,934.53,604.71z"/>
	<path class="st12" d="M812.13,586.88l63.01,66.15c2.56,2.68,3.33,6.72,1.93,10.23c-1.38,3.51-4.64,5.79-8.25,5.79h-377.1h62.98
		h-377.1c-3.61,0-6.87-2.28-8.26-5.79c-1.39-3.51-0.62-7.54,1.94-10.23l63.01-66.15H812.13z"/>
	<g>
		<g>
			<path class="st10" d="M288.67,564.7c-84.5-57.56-74.11-273.07-73.99-275.23l2.85,0.15c-0.11,2.15-10.45,216.06,72.74,272.74
				L288.67,564.7z"/>
		</g>
		<g>
			<path class="st10" d="M260.29,530.6c-0.15,0.94,13.26-49.88,36.57-44.98c23.29,4.92-36.72,45.92-36.72,45.92L260.29,530.6z"/>
		</g>
		<g>
			<path class="st10" d="M243.77,502.72c0,0,25.17-57.52,42.35-44.97C303.3,470.3,243.77,502.72,243.77,502.72z"/>
		</g>
		<g>
			<path class="st10" d="M233.17,468.96c0,0,31.54-61.54,52.59-44.52C301.71,437.32,233.17,468.96,233.17,468.96z"/>
		</g>
		<g>
			<path class="st10" d="M221.92,409.25c0,0,24.71-60.49,41.26-44.18C279.73,381.39,221.92,409.25,221.92,409.25z"/>
		</g>
		<g>
			<path class="st10" d="M223.9,432.37c0,0,38.93-53.4,50.49-33.25C282.16,412.68,223.9,432.37,223.9,432.37z"/>
		</g>
		<g>
			<path class="st10" d="M218.11,369.04c0,0,28.47-65.65,44.7-47.46C279.04,339.76,218.11,369.04,218.11,369.04z"/>
		</g>
		<g>
			<path class="st10" d="M217.9,324.59c0,0,17.5-57.85,26.07-39.99C252.54,302.46,217.9,324.59,217.9,324.59z"/>
		</g>
		<g>
			<path class="st10" d="M214.82,308.63c0,0-20.69-54.65-2.54-53.51C230.43,256.26,214.82,308.63,214.82,308.63z"/>
		</g>
		<g>
			<path class="st10" d="M217.9,324.59c0,0-53.79-18.73-37.79-33.41C196.11,276.51,217.9,324.59,217.9,324.59z"/>
		</g>
		<g>
			<path class="st10" d="M217.04,358.24c0,0-63.16-20.34-54.68-42.06C170.87,294.45,217.04,358.24,217.04,358.24z"/>
		</g>
		<g>
			<path class="st10" d="M221.96,391.89c0,0-83.8-23.83-69.51-45.54C166.73,324.64,221.96,391.89,221.96,391.89z"/>
		</g>
		<g>
			<path class="st10" d="M226.12,424.44c0,0-95.09-14.15-86.9-39.79C147.41,359.02,226.12,424.44,226.12,424.44z"/>
		</g>
		<g>
			<path class="st10" d="M237.25,478.44c0,0-83.63-36.33-91.5-12.56C137.87,489.64,237.25,478.44,237.25,478.44z"/>
		</g>
		<g>
			<path class="st10" d="M226.39,445.32c0,0-68.31-42.61-78.42-19.78C137.87,448.37,226.39,445.32,226.39,445.32z"/>
		</g>
		<g>
			<path class="st10" d="M242.69,497.7c0,0-75.36-22.39-71.98,3.28c3.38,25.67,73.06,1.74,73.06,1.74L242.69,497.7z"/>
		</g>
	</g>
	<path class="st13" d="M232.15,584.18c0,5.97,4.83,10.8,10.8,10.8h561.43c5.96,0,10.8-4.83,10.8-10.8V217.13
		c0-5.96-4.83-10.8-10.8-10.8H242.94c-5.96,0-10.8,4.83-10.8,10.8V584.18z"/>
	<path class="st14" d="M804.38,206.33c5.96,0,10.8,4.83,10.8,10.8v367.06c0,5.97-4.83,10.8-10.8,10.8H703.25
		c-96.84-128.82-220.61-294.05-289.69-388.65H804.38z"/>
	<path class="st11" d="M779.18,561.52c0,5.23-4.23,9.47-9.46,9.47H277.6c-5.23,0-9.46-4.24-9.46-9.47V239.79
		c0-5.23,4.23-9.46,9.46-9.46h492.12c5.23,0,9.46,4.23,9.46,9.46V561.52z"/>
	<g>
		<polygon class="st15" points="370.32,609.11 396.42,609.11 398.84,596.93 374.44,596.93 		"/>
		<polygon class="st15" points="761.91,596.93 741.56,596.93 747.77,609.11 775.59,609.11 		"/>
		<polygon class="st15" points="617.52,609.11 615.11,596.93 589.21,596.93 590.03,609.11 		"/>
		<polygon class="st15" points="668.96,609.11 664.84,596.93 640.44,596.93 642.86,609.11 		"/>
		<polygon class="st15" points="450.07,596.93 424.17,596.93 421.76,609.11 449.25,609.11 		"/>
		<polygon class="st15" points="565.03,609.11 564.22,596.93 532.38,596.93 532.4,609.11 		"/>
		<polygon class="st15" points="506.9,596.93 475.06,596.93 474.25,609.11 506.92,609.11 		"/>
		<polygon class="st15" points="714.17,596.93 690.9,596.93 695.02,609.11 720.38,609.11 		"/>
		<polygon class="st15" points="448.67,617.81 420.03,617.81 417.62,629.99 447.85,629.99 		"/>
		<polygon class="st15" points="308.26,629.99 337.19,629.99 341.32,617.81 314.47,617.81 		"/>
		<polygon class="st15" points="506.94,617.81 473.67,617.81 472.85,629.99 506.97,629.99 		"/>
		<polygon class="st15" points="363.24,629.99 392.27,629.99 394.69,617.81 367.37,617.81 		"/>
		<polygon class="st15" points="591.43,629.99 621.67,629.99 619.25,617.81 590.61,617.81 		"/>
		<polygon class="st15" points="647.01,629.99 676.04,629.99 671.91,617.81 644.59,617.81 		"/>
		<polygon class="st15" points="532.45,629.99 566.43,629.99 565.62,617.81 532.42,617.81 		"/>
		<polygon class="st15" points="724.81,617.81 697.97,617.81 702.09,629.99 731.02,629.99 		"/>
		<polygon class="st15" points="752.2,617.81 758.41,629.99 799.05,629.99 785.37,617.81 		"/>
		<polygon class="st15" points="706.22,642.17 710.35,654.35 743.43,654.35 737.23,642.17 		"/>
		<path class="st15" d="M680.16,642.17h-11.34v-0.41H423.19v0.41h-7.99l-2.42,12.18h10.41c0,0.01,245.63,0.01,245.63,0.01
			c0-0.01,15.47-0.01,15.47-0.01L680.16,642.17z"/>
		<polygon class="st15" points="263.7,609.11 291.52,609.11 297.73,596.93 277.37,596.93 		"/>
		<polygon class="st15" points="240.27,629.99 280.87,629.99 287.08,617.81 253.94,617.81 		"/>
		<polygon class="st15" points="318.9,609.11 344.26,609.11 348.39,596.93 325.11,596.93 		"/>
		<polygon class="st15" points="355,654.35 387.44,654.35 389.86,642.17 359.12,642.17 		"/>
	</g>
	<rect x="290.93" y="251.31" class="st16" width="458.86" height="32.39"/>
	<rect x="305.32" y="259.11" class="st11" width="165.55" height="13.19"/>
	<rect x="691.61" y="261.51" class="st11" width="43.18" height="13.19"/>
	<rect x="307.72" y="304.69" class="st17" width="329.9" height="242.32"/>
	<g>
		<path class="st18" d="M375.48,713.57c0,1.76-13.46,3.19-30.07,3.19c-16.61,0-30.07-1.43-30.07-3.19c0-1.76,13.46-3.2,30.07-3.2
			C362.02,710.37,375.48,711.8,375.48,713.57z"/>
		<path class="st16" d="M337.59,712.62c-1.51-15.48-4.44-31.67-2.88-47.37c0.43-4.29,3.98-23.46,10.72-19.04
			c5.4,3.54,1.85,16.5,1.81,21.89c-0.11,14.49-2.9,30.14-6.76,43.54L337.59,712.62z"/>
		<g>
			<path class="st19" d="M337.37,715.19l0.08-0.65c0.56-4.44,1.87-9.09,3.13-13.6c0.53-1.91,1.09-3.88,1.57-5.78
				c0.16-0.64,0.33-1.64,0.54-2.8c0.95-5.45,2.4-13.69,6.62-13.69c0.57,0,1.15,0.15,1.76,0.46c5.95,3,2.77,14.58-0.12,22.15
				c0.86-0.46,1.69-0.71,2.47-0.71c1.13,0,2.08,0.53,2.61,1.45c0.77,1.33,0.6,3.25-0.46,5.29c-1.6,3.06-4.87,4.63-7.76,6.02
				l-0.67,0.3L337.37,715.19z M349.33,679.64c-3.42,0-4.89,8.37-5.68,12.88c-0.21,1.18-0.38,2.2-0.56,2.87
				c-0.48,1.92-1.04,3.9-1.57,5.81c-1.19,4.24-2.42,8.62-3.01,12.8l8.45-1.37l0.47-0.23c2.88-1.38,5.87-2.81,7.32-5.59
				c0.89-1.69,1.07-3.3,0.49-4.31c-0.36-0.62-1-0.96-1.79-0.96c-0.67,0-1.77,0.24-3.18,1.38l-1.44,1.16l0.7-1.74
				c2.3-5.73,7-19.39,1.15-22.35C350.2,679.76,349.75,679.64,349.33,679.64z"/>
		</g>
		<path class="st3" d="M339.38,715.4c2.12-9.98-2.69-26.16-6.53-35.76c-1.25-3.13-8.08-13.52-12.39-11.39
			c-4.1,2.03,1.59,13.1,3.16,15.67c-1.13-1.49-3.48-2.79-5.8-2.74c-4.22,0.07-3.31,0.91-2.9,4.45c0.66,5.48,4.7,8.52,8.4,11.76
			c-2.76-1.06-7.14-0.88-6.99,3.25C316.48,704.75,339.38,715.4,339.38,715.4z"/>
	</g>
	<g>
		<rect x="326.92" y="329.88" class="st11" width="265.12" height="4.8"/>
		<rect x="326.92" y="351.95" class="st11" width="265.12" height="4.8"/>
		<rect x="326.92" y="374.02" class="st11" width="265.12" height="4.8"/>
		<rect x="326.92" y="396.09" class="st11" width="265.12" height="4.8"/>
		<rect x="326.92" y="418.16" class="st11" width="265.12" height="4.8"/>
		<rect x="326.92" y="440.23" class="st11" width="265.12" height="4.8"/>
		<rect x="326.92" y="462.3" class="st11" width="265.12" height="4.8"/>
		<rect x="326.92" y="484.37" class="st11" width="265.12" height="4.8"/>
		<rect x="326.92" y="506.44" class="st11" width="265.12" height="4.8"/>
	</g>
	<g class="st20">
		<g>
			<rect x="652.02" y="313.09" class="st21" width="88.77" height="2.92"/>
			<rect x="652.02" y="326.52" class="st21" width="88.77" height="2.92"/>
			<rect x="652.02" y="339.95" class="st21" width="88.77" height="2.92"/>
			<rect x="652.02" y="353.38" class="st21" width="88.77" height="2.92"/>
			<rect x="652.02" y="366.81" class="st21" width="88.77" height="2.92"/>
			<rect x="652.02" y="380.24" class="st21" width="88.77" height="2.92"/>
			<rect x="652.02" y="393.67" class="st21" width="88.77" height="2.92"/>
			<rect x="652.02" y="407.1" class="st21" width="88.77" height="2.92"/>
			<rect x="652.02" y="420.53" class="st21" width="88.77" height="2.92"/>
		</g>
	</g>
	<g class="st20">
		<g>
			<rect x="656.83" y="451.03" class="st21" width="88.77" height="2.92"/>
			<rect x="656.83" y="464.46" class="st21" width="88.77" height="2.92"/>
			<rect x="656.83" y="477.89" class="st21" width="88.77" height="2.92"/>
			<rect x="656.83" y="491.32" class="st21" width="88.77" height="2.92"/>
			<rect x="656.83" y="504.75" class="st21" width="88.77" height="2.92"/>
			<rect x="656.83" y="518.19" class="st21" width="88.77" height="2.92"/>
		</g>
	</g>
	<path class="st22" d="M523.9,200.68c-0.23-0.97-1.1-1.66-2.09-1.65c-1,0-1.86,0.69-2.08,1.67c-0.05,0.19-0.09,0.38-0.13,0.57
		c-15.83,66.5-142.43,87.77-142.43,87.77v18.65c2.41,167.75,67.78,211.33,144.04,248.4h1.21c76.26-37.07,141.62-80.65,144.04-248.4
		v-18.65c0,0-123.32-20.72-141.75-85.19C524.44,202.94,524.17,201.86,523.9,200.68z"/>
	<path class="st23" d="M521.35,232.14c0,58.66-109.06,76.98-109.06,76.98v14.12c1.83,127.01,51.32,160.01,109.06,188.07h0.92
		c57.73-28.07,107.22-61.06,109.05-188.07v-14.12c0,0-109.05-18.32-109.05-76.98H521.35z"/>
	<rect x="662.82" class="st24" width="237.53" height="239.91"/>
	<polygon class="st3" points="707.21,229.12 652.02,313.09 732.4,235.11 	"/>
	<path class="st11" d="M872.76,196.73c0,3.97-3.22,7.2-7.2,7.2H698.81c-3.98,0-7.2-3.22-7.2-7.2v-23.99c0-3.97,3.22-7.2,7.2-7.2
		h166.75c3.97,0,7.2,3.22,7.2,7.2V196.73z"/>
	<g>
		<path class="st25" d="M713.23,185.99c0,2.88-2.33,5.21-5.21,5.21c-2.88,0-5.21-2.33-5.21-5.21c0-2.88,2.33-5.21,5.21-5.21
			C710.9,180.79,713.23,183.12,713.23,185.99z"/>
		<path class="st25" d="M736.8,185.99c0,2.88-2.33,5.21-5.21,5.21c-2.88,0-5.21-2.33-5.21-5.21c0-2.88,2.33-5.21,5.21-5.21
			C734.46,180.79,736.8,183.12,736.8,185.99z"/>
		<path class="st25" d="M760.36,185.99c0,2.88-2.33,5.21-5.21,5.21c-2.88,0-5.21-2.33-5.21-5.21c0-2.88,2.33-5.21,5.21-5.21
			C758.03,180.79,760.36,183.12,760.36,185.99z"/>
		<path class="st25" d="M783.92,185.99c0,2.88-2.33,5.21-5.21,5.21c-2.88,0-5.21-2.33-5.21-5.21c0-2.88,2.33-5.21,5.21-5.21
			C781.59,180.79,783.92,183.12,783.92,185.99z"/>
		<path class="st25" d="M807.49,185.99c0,2.88-2.33,5.21-5.21,5.21c-2.88,0-5.21-2.33-5.21-5.21c0-2.88,2.33-5.21,5.21-5.21
			C805.15,180.79,807.49,183.12,807.49,185.99z"/>
		<path class="st25" d="M831.05,185.99c0,2.88-2.33,5.21-5.21,5.21c-2.88,0-5.21-2.33-5.21-5.21c0-2.88,2.33-5.21,5.21-5.21
			C828.72,180.79,831.05,183.12,831.05,185.99z"/>
	</g>
	<g>
		<path class="st6" d="M227.33,621.82c-0.43,7.04-11.6,9.97-15.06,15.45c3.59,1.47,16.2,0.81,19.7-1.61
			c4.81-3.33,1.22-11.73,6.82-16.55L227.33,621.82z"/>
		<path class="st6" d="M307.8,619.63c0.37,5.46-1.51,10.81-1.2,16.43c8.3,1.15,15.27,2.78,23.81,2.33
			c-1.98-5.15-6.38-6.11-10.94-9.18c-7.37-4.96-3.84-8.39-6.49-15.48L307.8,619.63z"/>
		<path class="st26" d="M290.24,322.77c0,0,2.07,20.37,8.55,24.92c4.84,3.4,4.16,1.28,5.6,7.77c0.89,4.05-1.57,9.54-3.72,12.86
			c-6.51,10.08-18.18,8.73-28.9,10.6c-6.13,1.07-12.77-1.66-14.77-8.05c-1.57-5.05-0.11-13.81,3.44-17.92
			c2.14-2.48-1.88-4.82,0.56-7.05c0.04-0.03,12.45-6.46,11.99-14.7C272.53,322.92,285.65,318.18,290.24,322.77z"/>
		<path class="st27" d="M252.03,427.81l-28.88,195.62l14.2,0.47l44.15-131.4l22.32,134.21l13.19-0.93c0,0,1.02-88.86,0.51-116.45
			c-0.51-27.58,1.01-65.93-10.66-82.29C306.86,427.04,268.23,437.01,252.03,427.81z"/>
		<path class="st26" d="M280.1,338.62c5.98,0.41,9.48-2.48,11.65-6.62c-1.08-5.02-1.51-9.23-1.51-9.23
			c-4.58-4.59-17.71,0.16-17.25,8.42c0.06,0.95-0.08,1.87-0.33,2.76C274.46,336.54,276.86,338.4,280.1,338.62z"/>
		<path class="st26" d="M266.83,310.5c0,0,0.51,23.91,12.75,24.75c12.26,0.83,14.15-12.1,15.3-21.53
			c1.27-10.55,0.31-13.81-13.99-14.92C267.11,297.7,266.83,310.5,266.83,310.5z"/>
		<polygon class="st19" points="260.69,345.36 269.69,339.59 281.51,350.34 294.58,341.38 297.91,345.93 282.7,423.57 276.7,422.37 
					"/>
		<path class="st28" d="M280.8,349.54l-2.78,5.71l2.79,3.89l-6.61,58.53l6,13.51l7.81-13.21l-4.15-58.67l2.47-3.82
			c0,0-4.26-6.25-4.04-6.38C282.51,348.96,280.8,349.54,280.8,349.54z"/>
		<path class="st6" d="M283.46,472.9c8.66-0.54,17.36-1.36,25.9-2.95c4.45-0.83,9.42-0.75,8.66-6.56
			c-0.74-5.66,0.12-10.71,0.7-16.53c0.52-5.2,0.01-10.46,0.01-15.75c0-10.82,0.96-21.6,1.48-32.4c0.23-4.88,0.06-9.61,1.22-14.32
			c1.15-4.67,1.87-9.45,2.47-14.21c0.65-5.19-0.6-10.54-0.89-15.82c-0.32-5.71-2.09-8.71-7.65-9.9c-2.67-0.57-5.6-0.82-8.32-1.12
			c-2.83-0.32-10.35,0.9-10.35,0.9l-17.09,53.53c0,0-15.03-53.73-15.97-53.98c-4.74-1.27-10.12-1.89-15.07-0.67
			c-3.6,0.88-5.76,2.16-8.77,4.27c-5.56,3.91-4.95,8.77-5.42,13.88c-2.86,19.47,5.18,37.34,6.99,56.82c0.92,9.9,0.78,20.06,0.3,30
			c-0.18,3.68-0.28,7.31-0.62,10.92c-0.09,0.95-0.25,10.62,0,10.69C241.03,469.7,257.85,474.51,283.46,472.9z"/>
		<path class="st6" d="M306.9,422.87c-2.7,0.79-5.81,1.26-8.48,1.8c-4.27,0.87-8.58,1.56-12.89,2.11
			c-6.09,0.77-12.25,1.22-18.38,0.94c-5.87-0.28-10.79-1.84-16.27-3.49c-0.24,2.29,0.52,5.16,0.47,7.63c3.81,0.08,7.44,1.47,11.2,2
			c5.25,0.74,10.38,1.2,15.82,1.21c7.1,0.01,13.97-2.04,20.79-3.8c2.16-0.55,7.06-0.69,8.72-2.2c1.17-1.08-0.01-6.48,0.39-6.62
			C307.81,422.6,307.36,422.74,306.9,422.87z"/>
		<polygon class="st6" points="280.8,349.54 277.73,354.62 268.99,348.61 278.67,356.29 		"/>
		<polygon class="st6" points="282.68,350.24 286.28,354.96 294.32,348.05 285.52,356.72 		"/>
		<path class="st27" d="M263.62,343.78c0,1.57-10.12,3.82-10.12,3.82l8.98,13.74l-6.96,5.6c0,0,23.4,37.92,25.19,37.79
			C282.5,404.6,263.62,338.31,263.62,343.78z"/>
		<polygon class="st27" points="296.68,344.23 306.13,349.86 297.35,364.68 305.45,368.3 279.14,401.81 		"/>
		<path class="st26" d="M278.01,399.79c-5.62-8.32-15.06-6.77-20.6-5.92c-1.81,0.28-5.57,0.84-6.37,2.76
			c-0.74,1.8,1.33,5.63,1.73,7.33c3.34-0.45,6.07-1.82,9.72-1.21c3.25,0.56,5.89,1.13,9.5,0.75L278.01,399.79z"/>
		<path class="st6" d="M295.17,302.46c1.76,4.96,2.7,9.4-0.17,14.18c-0.27-2.79-0.49-6.07-3.27-7.57c-3.79-2.05-8,1.12-11.84,1.13
			c-2.57,0-4.9-2.43-7.43-1.89c-3.73,0.79-4.46,4.87-4.61,7.86c-4.67-2.25-3.22-13.51-0.78-17.08
			C272.92,290.53,291.65,292.58,295.17,302.46z"/>
		<path class="st27" d="M238.87,348.06c0,0-21.37,25.87-14.85,63.43c4.66,26.82,46.56-6.75,61.41-7.42
			c1.44-0.31,3.82-7.65,3.82-7.65s-14.17-2.02-26.77,0.45c-12.6,2.47-21.59,4.5-21.59,4.5s5.85-23.84,4.95-22.94
			C244.95,379.32,250.35,346.48,238.87,348.06z"/>
		<path class="st26" d="M282.03,395.83c5.5-1.43,12.16,0.74,16.71,4.01c1.49,1.07,4.59,3.27,4.42,5.35
			c-0.15,1.94-3.73,4.41-4.86,5.75c-2.77-1.92-4.59-4.38-8.12-5.48c-3.15-0.98-5.76-1.66-8.81-3.63L282.03,395.83z"/>
		<path class="st27" d="M322.1,348.73c0,0,16,29.69,15.32,56.9c-0.67,27.22-43.22,9-65.03,4.27c-0.72,0.08,1.8-8.77,1.8-8.77
			s14.62-0.67,27.22,1.8c12.6,2.47,17.57-2.02,17.57-2.02s-4.38-21.81-4.95-22.94C310.85,371.67,310.63,347.16,322.1,348.73z"/>
	</g>
	<g>
		<path class="st6" d="M732.05,619.4c-0.45,7.04-11.63,9.94-15.11,15.41c3.58,1.48,16.2,0.86,19.71-1.55
			c4.82-3.32,1.26-11.73,6.87-16.54L732.05,619.4z"/>
		<path class="st6" d="M812.53,617.46c0.35,5.46-1.55,10.8-1.25,16.43c8.29,1.17,15.25,2.82,23.8,2.4
			c-1.96-5.15-6.35-6.14-10.91-9.21c-7.35-4.98-3.82-8.41-6.44-15.5L812.53,617.46z"/>
		<path class="st26" d="M775.75,316.06c0,0-2.07,20.37-8.55,24.92c-4.84,3.4-4.16,1.28-5.6,7.77c-0.89,4.05,1.57,9.54,3.72,12.86
			c6.51,10.08,18.18,8.73,28.9,10.6c6.13,1.07,12.77-1.66,14.77-8.05c1.57-5.05,0.11-13.81-3.44-17.92
			c-2.14-2.48,1.88-4.82-0.56-7.05c-0.04-0.03-12.45-6.46-11.99-14.7C793.45,316.22,780.33,311.47,775.75,316.06z"/>
		<path class="st27" d="M757.35,425.47L727.87,621l14.2,0.51l44.56-131.27l21.91,134.28l13.19-0.89c0,0,1.29-88.86,0.86-116.44
			c-0.42-27.59,1.22-65.93-10.4-82.33C812.19,424.86,773.53,434.71,757.35,425.47z"/>
		<path class="st26" d="M785.88,331.91c-5.98,0.41-9.48-2.48-11.65-6.62c1.08-5.02,1.51-9.23,1.51-9.23
			c4.58-4.59,17.71,0.16,17.25,8.42c-0.06,0.95,0.08,1.87,0.33,2.76C791.52,329.83,789.12,331.69,785.88,331.91z"/>
		<path class="st26" d="M799.15,303.79c0,0,3.01,24.76-12.75,24.75c-15.76-0.01-14.15-12.1-15.3-21.53
			c-1.27-10.55-0.31-13.81,13.99-14.92C798.87,291,799.15,303.79,799.15,303.79z"/>
		<polygon class="st19" points="805.29,338.65 796.29,332.88 784.48,343.63 771.4,334.68 768.07,339.23 783.28,416.87 
			789.29,415.67 		"/>
		<path class="st28" d="M785.19,342.84l2.78,5.71l-2.79,3.89l6.61,58.53l-6,13.51l-7.81-13.21l4.15-58.67l-2.47-3.82
			c0,0,4.26-6.25,4.04-6.38C783.47,342.25,785.19,342.84,785.19,342.84z"/>
		<path class="st6" d="M782.52,466.2c-8.66-0.54-17.35-1.36-25.9-2.95c-4.45-0.83-9.42-0.75-8.66-6.56
			c0.74-5.66-0.12-10.71-0.7-16.53c-0.52-5.2-0.01-10.46-0.01-15.75c0-10.82-0.96-21.6-1.48-32.4c-0.23-4.88-0.06-9.61-1.22-14.32
			c-1.15-4.67-1.87-9.45-2.47-14.21c-0.65-5.19,0.6-10.54,0.89-15.82c0.32-5.71,2.09-8.71,7.65-9.9c2.67-0.57,5.6-0.82,8.32-1.12
			c2.83-0.32,10.35,0.9,10.35,0.9l17.09,53.53c0,0,15.03-53.73,15.97-53.98c4.74-1.27,10.12-1.89,15.07-0.67
			c3.6,0.88,5.76,2.16,8.77,4.27c5.56,3.91,4.95,8.77,5.42,13.88c2.86,19.47-5.18,37.34-6.99,56.82c-0.92,9.9-0.78,20.06-0.3,30
			c0.18,3.68,0.28,7.31,0.62,10.92c0.09,0.95,0.25,10.62,0,10.69C824.95,463,808.14,467.8,782.52,466.2z"/>
		<path class="st6" d="M759.09,416.17c2.7,0.79,5.81,1.26,8.48,1.8c4.27,0.87,8.58,1.56,12.89,2.11c6.09,0.77,12.24,1.22,18.38,0.94
			c5.87-0.28,10.79-1.84,16.27-3.49c0.24,2.29-0.52,5.16-0.47,7.63c-3.81,0.08-7.44,1.47-11.2,2c-5.25,0.74-10.38,1.2-15.82,1.21
			c-7.1,0.01-13.97-2.04-20.79-3.8c-2.16-0.55-7.06-0.69-8.72-2.2c-1.17-1.08,0.01-6.48-0.39-6.62
			C758.17,415.9,758.62,416.04,759.09,416.17z"/>
		<polygon class="st6" points="785.19,342.84 788.26,347.91 797,341.91 787.32,349.59 		"/>
		<polygon class="st6" points="783.3,343.54 779.71,348.25 771.66,341.35 780.46,350.02 		"/>
		<path class="st27" d="M802.37,337.08c0,1.57,10.12,3.82,10.12,3.82l-8.98,13.74l6.96,5.6c0,0-23.4,37.92-25.19,37.79
			C783.48,397.9,802.37,331.6,802.37,337.08z"/>
		<polygon class="st27" points="769.3,337.53 759.85,343.15 768.63,357.97 760.53,361.6 786.85,395.11 		"/>
		<path class="st26" d="M787.97,393.08c5.62-8.32,15.06-6.77,20.6-5.92c1.81,0.28,5.57,0.84,6.37,2.76c0.74,1.8-1.33,5.63-1.73,7.33
			c-3.34-0.45-6.07-1.82-9.72-1.21c-3.25,0.56-5.89,1.13-9.5,0.75L787.97,393.08z"/>
		<path class="st27" d="M827.11,341.35c0,0,21.37,25.87,14.85,63.43c-4.66,26.82-46.56-6.75-61.41-7.42
			c-1.44-0.31-3.82-7.65-3.82-7.65s14.17-2.02,26.77,0.45c12.6,2.47,21.59,4.5,21.59,4.5s-5.85-23.84-4.95-22.94
			C821.04,372.62,815.64,339.78,827.11,341.35z"/>
		<path class="st26" d="M783.96,389.13c-5.5-1.43-12.16,0.74-16.71,4.01c-1.49,1.07-4.59,3.27-4.42,5.35
			c0.15,1.94,3.73,4.41,4.86,5.75c2.77-1.92,4.59-4.38,8.12-5.48c3.15-0.97,5.76-1.66,8.81-3.63L783.96,389.13z"/>
		<path class="st27" d="M743.88,342.03c0,0-16,29.69-15.32,56.9s43.22,9,65.03,4.27c0.72,0.08-1.8-8.77-1.8-8.77
			s-14.62-0.67-27.22,1.8c-12.6,2.47-17.57-2.02-17.57-2.02s4.38-21.81,4.95-22.94C755.13,364.97,755.36,340.45,743.88,342.03z"/>
		<path class="st29" d="M770.19,309.19c0.62-4.54-3.71-12.26-1.02-16.32c2.58-3.89,12.67-2.13,16.77-2.13
			c6.34,0,12.86-1.46,13.97,5.85c0.71,4.7,1.2,8.39-0.47,12.86c-4.23-2.93-3.21-4.92-8.19-5.3c-4.28-0.33-8.21,0.71-12.54-0.36
			c-9.33-2.31-2.99,3.23-8.48,7.31C770.33,311.76,770.19,309.19,770.19,309.19z"/>
	</g>
	<path class="st16" d="M378.14,130.33c3.21,25.97-15.24,49.63-41.21,52.84c-25.97,3.21-49.63-15.23-52.85-41.21
		c-3.21-25.97,15.24-49.63,41.21-52.84C351.27,85.91,374.93,104.36,378.14,130.33z"/>
	<path class="st11" d="M845.17,88.17c0,35.44-28.74,64.18-64.18,64.18c-35.44,0-64.18-28.73-64.18-64.18s28.74-64.18,64.18-64.18
		C816.43,23.99,845.17,52.72,845.17,88.17z"/>
	<path class="st17" d="M815.52,116.14l-1.09-0.56c-0.22-0.22-0.47-0.41-0.79-0.59c-2.78-1.55-5.71-2.88-8.47-4.12l-5-2.54
		c-0.08,0.05-0.14,0.1-0.21,0.15c-3.15-1.54-5.63-3.04-6.68-4.78c-1.05-1.74-1.81-6.72-2.33-11.74c3.56-4.46,4.49-11.69,5.03-17.86
		c3.28-0.94,5.34-4.93,5.31-8.25c0-0.35-0.04-0.68-0.11-0.99c-0.3-1.25-1.12-2.19-2.28-2.91c-0.41-0.25-4.86-1.55-4.84-1.3
		c-0.39-4.31-4.32-9.77-8.41-11.37c-4.16-1.63-10.4-0.29-14.33,1.42c-3.02,1.3-4.89,3.42-5.1,6.75c-2.21,0.13-4.9-0.12-6.18,2.16
		c-1.22,2.16,0.33,5.31,2.73,5.78c-3.04-0.66-3.66,3.87-2.98,5.93c0.92,2.77,3.7,3.89,6.41,3.89c0.57,0,1.11-0.07,1.64-0.15
		c0.75,5.12,2.58,13.28,6.77,17.81c-0.92,6.81-6.06,11.51-6.06,11.51l-5.52,3.43c-0.04-0.02-16.63,8.77-16.63,8.77
		s-6.68,7.85-10.94,21.82c0,0,12.87,15.48,37.14,16.18c24.26,0.69,54-16.18,54-16.18C822.36,124.15,815.52,116.14,815.52,116.14z"/>
	<g>
		<path class="st11" d="M354.93,149.81c8.67-1.07,14.83-8.97,13.76-17.65c-1.08-8.68-8.97-14.84-17.65-13.77
			c-1.58,0.2-3.06,0.62-4.44,1.23c-1.37-11.07-11.44-18.92-22.49-17.56c-11.05,1.37-18.9,11.43-17.53,22.48
			c0.15,1.25,0.43,2.46,0.79,3.62c-7.61,0.94-12.93,7.76-12.01,15.24c0.92,7.49,7.75,12.8,15.24,11.88L354.93,149.81z"/>
		<g>
			<polygon class="st19" points="334.46,142.65 323.53,134.12 314.99,145.05 318.87,144.57 320.71,159.46 332.44,158.01 
				330.59,143.12 			"/>
			<polygon class="st28" points="336.01,158.57 346.94,167.09 355.47,156.16 351.6,156.64 349.76,141.75 338.03,143.2 
				339.87,158.09 			"/>
		</g>
	</g>
	<g>
		<path class="st2" d="M633.73,94.25c-6.57,23.96-31.33,38.05-55.29,31.48c-23.96-6.58-38.05-31.33-31.48-55.29
			c6.58-23.96,31.33-38.05,55.29-31.48C626.21,45.54,640.3,70.29,633.73,94.25z"/>
		<g>
			<path class="st24" d="M601.93,53.29c-0.03-0.04-3.05-1.26-3.05-1.26l1.03-1.41l3.78,1.54l1.21,1.47l-12.69,10.5l-1.38-1.66
				L601.93,53.29z"/>
			<path class="st24" d="M596.21,67.18c-0.05,0-2.97,1.44-2.97,1.44l-0.37-1.71l3.67-1.79l1.9,0.07l-0.6,16.46l-2.15-0.08
				L596.21,67.18z"/>
			<path class="st24" d="M612.98,64.01c1.74,5.33,0.72,8.91-2.75,10.04c-3.06,1-6.07-1.19-7.81-6.36c-1.71-5.25-0.39-8.88,2.79-9.92
				C608.52,56.69,611.36,59.01,612.98,64.01z M604.56,67.02c1.33,4.07,3.34,5.98,5.26,5.35c2.17-0.71,2.38-3.57,1.08-7.58
				c-1.25-3.86-3.07-6.06-5.26-5.35C603.78,60.05,603.17,62.76,604.56,67.02z"/>
			<path class="st24" d="M585.45,65.87c-4.08,3.84-7.75,4.45-10.26,1.79c-2.21-2.34-1.5-6,2.43-9.77c4.02-3.79,7.87-4.14,10.16-1.7
				C590.17,58.71,589.27,62.27,585.45,65.87z M579.13,59.52c-3.12,2.94-3.99,5.57-2.6,7.04c1.57,1.66,4.25,0.63,7.31-2.25
				c2.95-2.78,4.18-5.36,2.6-7.04C585.11,55.85,582.4,56.45,579.13,59.52z"/>
			<path class="st24" d="M614.12,78.32l-17.06-4.68c-2.21-0.6-5.82-1.6-8.03-2.2l-17.06-4.68c-2.21-0.61-3.32,0.56-2.47,2.58
				l5.06,12.06c0.85,2.03,2.25,5.34,3.1,7.37l2.82,6.73l-4.06,14.79c-0.37,1.33,0.42,2.71,1.75,3.07l6.83,1.87
				c1.33,0.36,2.71-0.42,3.07-1.75l4.06-14.79l5.86-4.34c1.77-1.31,4.66-3.45,6.42-4.76l10.51-7.79
				C616.69,80.49,616.33,78.92,614.12,78.32z"/>
		</g>
	</g>
	<g>
		<path class="st30" d="M509.92,140.01c7.8,16.58,0.67,36.35-15.91,44.15c-16.58,7.8-36.35,0.68-44.15-15.91
			c-7.8-16.58-0.68-36.35,15.91-44.15C482.35,116.3,502.12,123.43,509.92,140.01z"/>
		<path class="st24" d="M488.61,141.46c-2.99-8.66-10.05-13.85-16.22-11.83c-6.17,2.02-8.79,10.38-6.08,19.14
			c-1.97,0.67-3.04,2.79-2.39,4.77l6.89,21.03c0.65,1.99,2.79,3.08,4.79,2.42l22.23-7.28c1.99-0.65,3.08-2.8,2.42-4.79l-6.89-21.03
			C492.71,141.92,490.59,140.84,488.61,141.46z M473.68,133.57c3.84-1.26,8.81,2.93,10.99,9.18l-14.43,4.72
			C468.31,141.14,469.84,134.83,473.68,133.57z"/>
		<path class="st24" d="M485.26,156.74c0.65,1.99-0.43,4.14-2.43,4.8c-1.99,0.65-4.14-0.44-4.79-2.43
			c-0.65-1.99,0.44-4.14,2.43-4.79C482.46,153.65,484.61,154.74,485.26,156.74z"/>
		<path class="st24" d="M485.66,164.6c0.3,0.91-0.2,1.89-1.11,2.18c-0.91,0.3-1.88-0.2-2.18-1.11l-2.58-7.88
			c-0.3-0.91,0.2-1.88,1.1-2.18c0.91-0.3,1.89,0.2,2.18,1.1L485.66,164.6z"/>
	</g>
	<g>
		<g>
			<path class="st11" d="M200.91,215.4c-2.38,0-4.78-0.27-7.19-0.82c-17.4-3.97-28.32-21.34-24.36-38.73
				c3.97-17.39,21.35-28.32,38.74-24.35c1.31,0.3,2.13,1.6,1.84,2.91c-0.3,1.31-1.6,2.13-2.92,1.83
				c-14.77-3.36-29.54,5.91-32.91,20.69c-3.37,14.78,5.91,29.55,20.7,32.92c14.77,3.36,29.54-5.92,32.9-20.7
				c1.01-4.38,0.91-8.97-0.25-13.27c-0.35-1.3,0.41-2.63,1.71-2.98c1.29-0.35,2.64,0.41,2.99,1.71c1.37,5.07,1.48,10.47,0.3,15.63
				C229.03,205.21,215.67,215.39,200.91,215.4z"/>
		</g>
		<g>
			<path class="st11" d="M200.53,190.01c-0.6,0-1.18-0.22-1.63-0.63l-17.64-15.97c-1-0.9-1.08-2.44-0.17-3.43
				c0.9-1,2.44-1.08,3.43-0.17l15.84,14.32l40.04-44.7c0.89-1,2.43-1.09,3.43-0.19c1,0.9,1.09,2.44,0.19,3.43l-41.67,46.52
				c-0.43,0.48-1.04,0.77-1.69,0.81C200.62,190.01,200.57,190.01,200.53,190.01z"/>
		</g>
	</g>
	<path class="st21" d="M375.5,27.59c0,7.29-5.91,13.19-13.2,13.19c-7.29,0-13.19-5.91-13.19-13.19s5.91-13.19,13.19-13.19
		C369.6,14.4,375.5,20.3,375.5,27.59z"/>
	<path class="st16" d="M550.05,28.49c0,5.8-4.7,10.5-10.5,10.5c-5.8,0-10.49-4.7-10.49-10.5c0-5.8,4.7-10.5,10.49-10.5
		C545.35,18,550.05,22.7,550.05,28.49z"/>
	<g>
		<path class="st31" d="M490.21,39.56c2.06,16.66-9.77,31.83-26.43,33.89c-16.66,2.06-31.83-9.77-33.89-26.43
			c-2.06-16.66,9.77-31.83,26.43-33.89C472.97,11.07,488.15,22.91,490.21,39.56z"/>
		<path class="st11" d="M467.01,21.13l-10.99,10.35c-0.47,0.44-0.49,1.17-0.05,1.64l1.99,2.11c0.44,0.47,0.42,1.21-0.05,1.65
			l-17.06,16.06c-0.46,0.44-0.48,1.17-0.05,1.63l2.65,2.82c0.44,0.47,1.17,0.49,1.63,0.05l0.49-0.46l0.11-4.24
			c0.02-0.63,0.58-1.16,1.21-1.14l3.64,0.13l0.11-4.73c0.02-0.63,0.59-1.16,1.21-1.14l5.33,0.19l4.96-4.67
			c0.47-0.44,1.21-0.42,1.65,0.05l4.65,4.94c0.44,0.47,1.17,0.49,1.64,0.05l10.99-10.35c0.46-0.44,0.49-1.17,0.05-1.63l-12.47-13.25
			C468.2,20.71,467.47,20.69,467.01,21.13z M473.22,34.31c-0.97,0.91-2.85,0.47-4.22-0.98c-1.36-1.45-1.68-3.36-0.72-4.26
			c0.96-0.91,2.85-0.47,4.21,0.98C473.86,31.49,474.18,33.4,473.22,34.31z"/>
	</g>
	<path class="st11" d="M558.55,347.23c-0.58-27.1-15.77-48.09-34.96-47.98c-19.21,0.11-34.15,21.27-34.42,48.37
		c-6.14,0.11-11.08,5.12-11.05,11.28l0.38,65.43c0.03,6.19,5.08,11.19,11.29,11.16l69.16-0.39c6.18-0.03,11.18-5.09,11.14-11.29
		l-0.36-65.44C569.69,352.23,564.69,347.26,558.55,347.23z M523.66,311.52c11.95-0.07,22.13,16.21,22.64,35.78l-44.88,0.25
		C501.69,327.98,511.71,311.59,523.66,311.52z"/>
	<path class="st6" d="M535.32,387.2c0.04,6.22-4.96,11.27-11.18,11.3c-6.19,0.04-11.26-4.98-11.3-11.17
		c-0.03-6.2,4.97-11.26,11.17-11.3C530.23,375.99,535.29,381,535.32,387.2z"/>
	<path class="st6" d="M529.33,409.72c0.02,2.83-2.28,5.13-5.09,5.15c-2.82,0.01-5.11-2.27-5.13-5.1l-0.14-24.51
		c-0.02-2.81,2.25-5.11,5.07-5.13c2.83-0.02,5.15,2.26,5.16,5.07L529.33,409.72z"/>
</g>
</svg>
